<svg viewBox="0 0 600 600" xmlns="http://www.w3.org/2000/svg" fill-rule="evenodd" clip-rule="evenodd" stroke-linejoin="round" stroke-miterlimit="2"><style>@media (prefers-color-scheme: dark) { #circle { fill: #ffffff; } #sf { fill: #000000; } }</style><path fill="none" d="M0 0h600v600H0z"/><clipPath id="a"><path d="M0 0h600v600H0z"/></clipPath><g clip-path="url(#a)"><path id="circle" d="M599.985 299.974c0 165.696-134.307 300.024-300.003 300.024C134.302 599.998 0 465.67 0 299.974 0 134.304 134.302-.002 299.982-.002c165.696 0 300.003 134.307 300.003 299.976z" fill-rule="nonzero"/><path id="sf" d="M431.154 110.993c-30.474 1.043-57.08 17.866-76.884 41.076-21.926 25.49-36.508 55.696-47.03 86.55-18.791-15.416-33.282-35.364-63.457-44.04-23.311-6.702-47.794-3.948-70.314 12.833-10.667 7.965-18.016 19.995-21.51 31.34-9.05 29.416 9.506 55.61 17.942 65.004l18.444 19.743c3.792 3.879 12.95 13.983 8.467 28.458-4.82 15.764-23.809 25.938-43.285 19.958-8.703-2.67-21.199-9.147-18.396-18.257 1.145-3.739 3.82-6.553 5.264-9.74 1.305-2.788 1.941-4.858 2.337-6.099 3.557-11.602-1.31-26.714-13.747-30.56-11.613-3.562-23.488-.738-28.094 14.202-5.22 16.979 2.905 47.795 46.436 61.206 51 15.694 94.13-12.084 100.249-48.287 3.857-22.675-6.392-39.536-25.147-61.2l-15.293-16.92c-9.254-9.248-12.437-25.018-2.856-37.134 8.093-10.233 19.6-14.581 38.476-9.457 27.543 7.468 39.809 26.58 60.285 41.996-8.44 27.741-13.977 55.584-18.973 80.548l-3.07 18.626c-14.636 76.766-25.816 118.939-54.856 143.144-5.858 4.167-14.218 10.399-26.821 10.843-6.622.203-8.757-4.355-8.847-6.344-.15-4.628 3.755-6.756 6.349-8.837 3.889-2.124 9.757-5.633 9.356-16.882-.423-13.293-11.431-24.815-27.35-24.286-11.919.402-30.09 11.608-29.4 32.149.701 21.22 20.472 37.118 50.288 36.107 15.935-.535 51.528-7.018 86.592-48.699 40.82-47.8 52.235-102.576 60.82-142.673l9.591-52.946a177.574 177.574 0 0017.209 1.22c50.844 1.075 76.257-25.249 76.653-44.41.257-11.591-7.6-23.011-18.61-22.739-7.863.22-17.759 5.473-20.123 16.353-2.332 10.671 16.17 20.316 1.712 29.704-10.27 6.643-28.683 11.319-54.615 7.526l4.712-26.061c9.623-49.416 21.493-110.193 66.528-111.68 3.284-.155 15.282.139 15.56 8.088.08 2.637-.582 3.332-3.68 9.393-3.166 4.729-4.36 8.773-4.204 13.394.433 12.608 10.024 20.91 23.916 20.429 18.572-.626 23.906-18.7 23.6-27.998-.759-21.846-23.776-35.647-54.224-34.641z" fill="#fff" fill-rule="nonzero"/></g></svg>
